<svg xmlns="http://www.w3.org/2000/svg" xmlns:xlink="http://www.w3.org/1999/xlink" width="22.018177032470703" height="17.0015869140625" viewBox="0 0 22.018177032470703 17.0015869140625" fill="none">
<path   fill-rule="evenodd"  fill="#A6A6A6"  d="M15.7073 4.00159C19.2606 4.1092 22.0761 7.05702 22.0173 10.6116C21.9585 14.1663 19.0524 17.0116 15.4973 17.0016L8.49727 17.0016C4.40868 17.0016 0.902023 14.0898 0.147272 10.0716C-0.607478 6.05323 1.59785 2.06612 5.40727 0.581587C9.21691 -0.902941 13.5441 0.532191 15.7073 4.00159ZM8.49607 2.00259C11.1605 2.00259 13.5526 3.62622 14.5361 6.10259C16.219 5.73794 17.962 6.36864 19.0261 7.72259C20.0902 9.07654 20.2879 10.9134 19.5361 12.4626C18.7842 14.0118 17.2181 15.0026 15.4961 15.0026L8.49607 15.0026C4.90611 15.0026 1.99607 12.0924 1.99607 8.50259C1.99607 4.91277 4.90611 2.00259 8.49607 2.00259Z">
</path>
</svg>
