<svg xmlns="http://www.w3.org/2000/svg" xmlns:xlink="http://www.w3.org/1999/xlink" width="21.9813232421875" height="18.94873046875" viewBox="0 0 21.9813232421875 18.94873046875" fill="none">
<path   fill-rule="evenodd"  fill="#A6A6A6"  d="M2.7877 10.9578C1.52384 8.77412 1.75748 6.03176 3.3777 4.0978C4.99791 2.16374 7.65629 1.44608 10.0277 2.3078C12.3989 3.16942 13.9777 5.42476 13.9777 7.9478L13.9777 7.9978C15.0382 6.91451 16.6795 6.63444 18.0377 7.3078C19.3959 7.98127 20.168 9.458 19.9477 10.9578L21.9577 10.9578C22.1175 9.23446 21.4602 7.52999 20.1777 6.3678C18.8952 5.20561 17.1371 4.71951 15.4377 5.0478C13.8063 0.940796 9.15473 -1.06371 5.0477 0.567803C0.940664 2.19921 -1.06373 6.85069 0.567696 10.9578L2.7877 10.9578ZM21.981 14.9487L0.980996 14.9487L0.980996 12.9487L21.981 12.9487L21.981 14.9487ZM2.981 18.9487L19.981 18.9487L19.981 16.9487L2.981 16.9487L2.981 18.9487Z">
</path>
</svg>
