<svg xmlns="http://www.w3.org/2000/svg" xmlns:xlink="http://www.w3.org/1999/xlink" width="22.023265838623047" height="20.9974365234375" viewBox="0 0 22.023265838623047 20.9974365234375" fill="none">
<path   fill-rule="evenodd"  fill="#A6A6A6"  d="M9.44274 2.17146C12.1189 2.83555 14.0027 5.24424 14.0027 8.00146L14.0027 8.05147C14.9816 7.05266 16.4586 6.72669 17.7627 7.23146C19.0671 7.73624 19.9412 8.97398 19.9927 10.3715C20.0443 11.7691 19.2661 13.0618 18.0027 13.6615L18.0027 15.7915C20.8502 14.9985 22.5563 12.0973 21.8727 9.22147C21.1892 6.34582 18.3524 4.51833 15.4527 5.09146C14.1774 1.81952 10.9251 -0.23479 7.42274 0.0214648C3.92034 0.277719 0.988268 2.78874 0.202739 6.21146C-0.58279 9.63419 0.962587 13.1738 4.00274 14.9315L4.00274 12.4715C1.94786 10.6335 1.40356 7.62865 2.69274 5.19146C3.98169 2.75428 6.76683 1.50738 9.44274 2.17146ZM5.99924 17.9975L7.99924 17.9975L7.99924 11.9975L5.99924 11.9975L5.99924 17.9975ZM13.9992 17.9975L15.9992 17.9975L15.9992 11.9975L13.9992 11.9975L13.9992 17.9975ZM9.99924 20.9975L11.9992 20.9975L11.9992 14.9975L9.99924 14.9975L9.99924 20.9975Z">
</path>
</svg>
