<svg xmlns="http://www.w3.org/2000/svg" xmlns:xlink="http://www.w3.org/1999/xlink" width="21.996047973632812" height="20.9962158203125" viewBox="0 0 21.996047973632812 20.9962158203125" fill="none">
<path   fill-rule="evenodd"  fill="#A6A6A6"  d="M0.0159412 7.5C0.280568 3.2848 3.77247 0 7.99594 0C10.8908 0 13.5602 1.56488 14.9759 4.09C17.2087 3.70552 19.4677 4.6092 20.8159 6.43C22.1644 8.2508 22.3751 10.6765 21.3559 12.7C20.3368 14.7235 18.2614 16 15.9959 16L14.9959 16L14.9959 14L15.9959 14C17.6994 14 19.2181 12.9196 19.7759 11.31C20.3338 9.7004 19.8034 7.91472 18.4659 6.86C17.1283 5.80512 15.271 5.71224 13.8359 6.63C13.1487 3.7028 10.4082 1.7364 7.41594 2.03C4.42366 2.3236 2.10109 4.7852 1.99594 7.79C1.89079 10.795 4.03159 13.4181 6.99594 13.92L6.99594 15.94C2.80569 15.411 -0.248466 11.7152 0.0159412 7.5ZM12.765 16.734C13.7411 17.7104 13.7413 19.2878 12.765 20.264C11.7887 21.2402 10.2013 21.2402 9.22504 20.264C8.24874 19.2878 8.24894 17.7104 9.22504 16.734L10.995 14.964L12.765 16.734Z">
</path>
</svg>
