<svg xmlns="http://www.w3.org/2000/svg" xmlns:xlink="http://www.w3.org/1999/xlink" width="22" height="22" viewBox="0 0 22 22" fill="none">
<path   fill-rule="evenodd"  fill="#A6A6A6"  d="M10 3L12 3L12 0L10 0L10 3ZM15.95 4.634L17.36 6.054L19.49 3.934L18.07 2.514L15.95 4.634ZM4.635 6.045L6.055 4.635L3.925 2.515L2.515 3.925L4.635 6.045ZM17 11C17 7.68632 14.3137 5 11 5C7.68632 5 5 7.68632 5 11C5 14.3137 7.68632 17 11 17C14.3137 17 17 14.3137 17 11ZM15 11C15 8.79088 13.2091 7 11 7C8.79088 7 7 8.79088 7 11C7 13.2091 8.79088 15 11 15C13.2091 15 15 13.2091 15 11ZM0 10L0 12L3 12L3 10L0 10ZM22 10L19 10L19 12L22 12L22 10ZM2.515 18.07L3.925 19.49L6.045 17.36L4.635 15.95L2.515 18.07ZM18.07 19.49L19.49 18.07L17.36 15.95L15.95 17.36L18.07 19.49ZM10 19L10 22L12 22L12 19L10 19Z">
</path>
</svg>
