<svg xmlns="http://www.w3.org/2000/svg" xmlns:xlink="http://www.w3.org/1999/xlink" width="256" height="256" viewBox="0 0 256 256" fill="none">
<rect x="0" y="0" width="256" height="256"   fill="url(#linear_fill_0_4)" >
</rect>
<path     fill="#FFFFFF"  d="M187 103C192.6 103 195.4 103 197.54 104.09Q198.241 104.447 198.878 104.91Q199.515 105.372 200.071 105.929Q200.628 106.485 201.09 107.122Q201.553 107.759 201.91 108.46C203 110.6 203 113.4 203 119L203 179L153 179L103 179L103 141L103 119C103 113.4 103 110.6 104.09 108.46Q104.447 107.759 104.91 107.122Q105.372 106.485 105.929 105.929Q106.485 105.372 107.122 104.91Q107.759 104.447 108.46 104.09C110.6 103 113.4 103 119 103L187 103Z">
</path>
<g filter="url(#filter_0_8)">
<path     fill="#FFFFFF" fill-opacity="0.8" d="M153 179L203 179L203 191L203 191C203 192.86 203 193.79 202.88 194.56Q202.818 194.948 202.727 195.33Q202.635 195.712 202.514 196.085Q202.392 196.459 202.242 196.822Q202.091 197.184 201.913 197.534Q201.735 197.884 201.529 198.219Q201.324 198.554 201.093 198.872Q200.862 199.189 200.607 199.488Q200.352 199.787 200.075 200.065Q199.797 200.342 199.498 200.597Q199.199 200.852 198.882 201.083Q198.564 201.314 198.229 201.519Q197.894 201.725 197.544 201.903Q197.194 202.081 196.832 202.232Q196.469 202.382 196.095 202.503Q195.722 202.625 195.34 202.717Q194.958 202.808 194.57 202.87C193.79 203 192.86 203 191 203L115 203C113.14 203 112.21 203 111.44 202.88Q111.052 202.818 110.67 202.727Q110.288 202.635 109.915 202.514Q109.541 202.392 109.178 202.242Q108.816 202.091 108.466 201.913Q108.116 201.735 107.781 201.529Q107.446 201.324 107.128 201.093Q106.81 200.862 106.512 200.607Q106.213 200.352 105.935 200.075Q105.658 199.797 105.403 199.498Q105.148 199.199 104.917 198.882Q104.686 198.564 104.481 198.229Q104.275 197.894 104.097 197.544Q103.919 197.194 103.768 196.832Q103.618 196.469 103.496 196.095Q103.375 195.722 103.283 195.34Q103.192 194.958 103.13 194.57C103 193.79 103 192.86 103 191L103 179L153 179Z">
</path>
</g>
<path d="M147.54 54.09C145.4 53 142.6 53 137 53L69 53C63.4 53 60.6 53 58.46 54.09Q57.7588 54.4473 57.1221 54.9099Q56.4854 55.3725 55.9289 55.9289Q55.3725 56.4854 54.9099 57.1221Q54.4473 57.7588 54.09 58.46C53 60.6 53 63.4 53 69L53 137C53 142.6 53 145.4 54.09 147.54Q54.4473 148.241 54.9099 148.878Q55.3725 149.515 55.9289 150.071Q56.4854 150.628 57.1221 151.09Q57.7588 151.553 58.46 151.91C60.6 153 63.4 153 69 153L93 153L93 109C93 103.4 93 100.6 94.09 98.46Q94.4473 97.7588 94.9099 97.1221Q95.3725 96.4854 95.9289 95.9289Q96.4854 95.3725 97.1221 94.9099Q97.7588 94.4473 98.46 94.09C100.6 93 103.4 93 109 93L153 93L153 69C153 63.4 153 60.6 151.91 58.46Q151.553 57.7588 151.09 57.1221Q150.628 56.4854 150.071 55.9289Q149.515 55.3725 148.878 54.9099Q148.241 54.4473 147.54 54.09Z" fill-rule="evenodd"  fill="#FFFFFF" >
</path>
<defs>
<linearGradient id="linear_fill_0_4" x1="128" y1="256" x2="128" y2="0" gradientUnits="userSpaceOnUse">
<stop offset="0" stop-color="#1974D2"  />
<stop offset="1" stop-color="#66B3FF"  />
</linearGradient>
<filter id="filter_0_8" x="103" y="179" width="100" height="24" filterUnits="userSpaceOnUse" color-interpolation-filters="sRGB">
<feFlood flood-opacity="0" result="feFloodId_0_8"/>
<feGaussianBlur in="feFloodId_0_8" stdDeviation_bg="2" type="BackgroundImage" />
<feComposite in2="SourceAlpha" operator="in" result="background_Blur_0_8"/>
<feBlend mode="normal" in="SourceGraphic" in2="background_Blur_0_8" result="shape_0_8"/>
</filter>
</defs>
</svg>
